<svg width="24" height="24" viewBox="0 0 24 24" fill="none" xmlns="http://www.w3.org/2000/svg">
  <path d="M21 12.79C20.88 12.8 20.76 12.81 20.63 12.81A8 8 0 0 1 11.19 3.37C11.19 3.24 11.2 3.12 11.21 3C11.21 2.34 11.11 1.7 10.91 1.09C10.84 0.88 10.64 0.75 10.42 0.75C10.35 0.75 10.27 0.76 10.2 0.79C5.63 2.69 2.5 7.25 2.5 12.5C2.5 18.85 7.65 24 14 24C17.61 24 20.82 22.2 22.78 19.38C22.89 19.21 22.9 19 22.82 18.83C22.64 18.44 22.5 18.03 22.39 17.61C21.97 16.05 21.59 14.45 21 12.79Z" fill="#8D97A6"/>
</svg>

